<mxfile host="app.diagrams.net" modified="2024-02-22T08:24:28.927Z" agent="Mozilla/5.0 (Macintosh; Intel Mac OS X 10_15_7) AppleWebKit/537.36 (KHTML, like Gecko) Chrome/121.0.0.0 Safari/537.36" etag="8SoopI4yhKc7bHpk9ZwA" version="23.1.5" type="device">
  <diagram id="d1ab7348-05c3-a1e3-ca4d-12c340fd6b49" name="Page-1">
    <mxGraphModel dx="979" dy="620" grid="1" gridSize="10" guides="1" tooltips="1" connect="0" arrows="0" fold="1" page="1" pageScale="1" pageWidth="1169" pageHeight="827" background="none" math="0" shadow="0">
      <root>
        <mxCell id="0" />
        <mxCell id="1" parent="0" />
        <mxCell id="2" value="&lt;b&gt;Google &lt;/b&gt;Cloud Platform" style="fillColor=#F6F6F6;strokeColor=none;shadow=0;gradientColor=none;fontSize=14;align=left;spacing=10;fontColor=#717171;9E9E9E;verticalAlign=top;spacingTop=-4;fontStyle=0;spacingLeft=40;html=1;container=0;" parent="1" vertex="1">
          <mxGeometry x="330" y="100" width="670" height="540" as="geometry" />
        </mxCell>
        <mxCell id="9" value="Architecture: Retail &amp;gt; Beacons and Targeted Marketing" style="fillColor=#4DA1F5;strokeColor=none;shadow=1;gradientColor=none;fontSize=14;align=left;spacingLeft=50;fontColor=#ffffff;html=1;" parent="1" vertex="1">
          <mxGeometry x="110" y="40" width="950" height="40" as="geometry" />
        </mxCell>
        <mxCell id="156" style="edgeStyle=orthogonalEdgeStyle;rounded=0;html=1;labelBackgroundColor=none;startFill=1;startSize=4;endArrow=blockThin;endFill=1;endSize=4;jettySize=auto;orthogonalLoop=1;strokeColor=#4284F3;strokeWidth=2;fontSize=12;fontColor=#000000;align=center;dashed=0;" parent="1" source="127" target="rMcf9g8HV1eWvbZJhlMh-199" edge="1">
          <mxGeometry relative="1" as="geometry" />
        </mxCell>
        <mxCell id="127" value="Beacons&lt;br&gt;&lt;font style=&quot;font-size: 10px&quot;&gt;Proximity Notifications&lt;/font&gt;&lt;br&gt;" style="rounded=1;absoluteArcSize=1;arcSize=2;html=1;strokeColor=none;gradientColor=none;shadow=0;dashed=0;fontSize=12;fontColor=#9E9E9E;align=left;verticalAlign=top;spacing=10;spacingTop=-4;fillColor=#E1F5FE;" parent="1" vertex="1">
          <mxGeometry x="120" y="220" width="170" height="130" as="geometry" />
        </mxCell>
        <mxCell id="157" style="edgeStyle=orthogonalEdgeStyle;rounded=0;html=1;labelBackgroundColor=none;startFill=1;startSize=4;endArrow=blockThin;endFill=1;endSize=4;jettySize=auto;orthogonalLoop=1;strokeColor=#4284F3;strokeWidth=2;fontSize=12;fontColor=#000000;align=center;dashed=0;" parent="1" source="128" target="rMcf9g8HV1eWvbZJhlMh-199" edge="1">
          <mxGeometry relative="1" as="geometry">
            <Array as="points">
              <mxPoint x="310" y="425" />
              <mxPoint x="310" y="285" />
            </Array>
          </mxGeometry>
        </mxCell>
        <mxCell id="128" value="Backoffice&lt;br&gt;&lt;font style=&quot;font-size: 10px&quot;&gt;Business Systems&lt;/font&gt;&lt;br&gt;" style="rounded=1;absoluteArcSize=1;arcSize=2;html=1;strokeColor=none;gradientColor=none;shadow=0;dashed=0;fontSize=12;fontColor=#9E9E9E;align=left;verticalAlign=top;spacing=10;spacingTop=-4;fillColor=#FFF8E1;" parent="1" vertex="1">
          <mxGeometry x="120" y="360" width="170" height="130" as="geometry" />
        </mxCell>
        <mxCell id="129" value="Mobile Devices&lt;br&gt;&lt;font style=&quot;font-size: 10px&quot;&gt;Push Notifications&lt;/font&gt;&lt;br&gt;" style="rounded=1;absoluteArcSize=1;arcSize=2;html=1;strokeColor=none;gradientColor=none;shadow=0;dashed=0;fontSize=12;fontColor=#9E9E9E;align=left;verticalAlign=top;spacing=10;spacingTop=-4;fillColor=#F1F8E9;" parent="1" vertex="1">
          <mxGeometry x="120" y="500" width="170" height="140" as="geometry" />
        </mxCell>
        <mxCell id="130" value="" style="strokeColor=#dddddd;fillColor=#ffffff;shadow=1;strokeWidth=1;rounded=1;absoluteArcSize=1;arcSize=2;labelPosition=center;verticalLabelPosition=middle;align=center;verticalAlign=bottom;spacingLeft=0;fontColor=#999999;fontSize=12;whiteSpace=wrap;spacingBottom=2;html=1;" parent="1" vertex="1">
          <mxGeometry x="130" y="268" width="70" height="70" as="geometry" />
        </mxCell>
        <mxCell id="131" value="" style="dashed=0;connectable=0;html=1;fillColor=#757575;strokeColor=none;shape=mxgraph.gcp2.beacon;part=1;" parent="130" vertex="1">
          <mxGeometry x="0.5" width="36.5" height="50" relative="1" as="geometry">
            <mxPoint x="-18.25" y="10" as="offset" />
          </mxGeometry>
        </mxCell>
        <mxCell id="132" value="" style="strokeColor=#dddddd;fillColor=#ffffff;shadow=1;strokeWidth=1;rounded=1;absoluteArcSize=1;arcSize=2;labelPosition=center;verticalLabelPosition=middle;align=center;verticalAlign=bottom;spacingLeft=0;fontColor=#999999;fontSize=12;whiteSpace=wrap;spacingBottom=2;html=1;" parent="1" vertex="1">
          <mxGeometry x="210" y="268" width="70" height="70" as="geometry" />
        </mxCell>
        <mxCell id="133" value="" style="dashed=0;connectable=0;html=1;fillColor=#757575;strokeColor=none;shape=mxgraph.gcp2.retail;part=1;" parent="132" vertex="1">
          <mxGeometry x="0.5" width="50" height="44.5" relative="1" as="geometry">
            <mxPoint x="-25" y="12.75" as="offset" />
          </mxGeometry>
        </mxCell>
        <mxCell id="134" value="" style="strokeColor=#dddddd;fillColor=#ffffff;shadow=1;strokeWidth=1;rounded=1;absoluteArcSize=1;arcSize=2;labelPosition=center;verticalLabelPosition=middle;align=center;verticalAlign=bottom;spacingLeft=0;fontColor=#999999;fontSize=12;whiteSpace=wrap;spacingBottom=2;html=1;" parent="1" vertex="1">
          <mxGeometry x="130" y="410" width="70" height="70" as="geometry" />
        </mxCell>
        <mxCell id="135" value="" style="dashed=0;connectable=0;html=1;fillColor=#757575;strokeColor=none;shape=mxgraph.gcp2.database;part=1;" parent="134" vertex="1">
          <mxGeometry x="0.5" width="50" height="45" relative="1" as="geometry">
            <mxPoint x="-25" y="12.5" as="offset" />
          </mxGeometry>
        </mxCell>
        <mxCell id="136" value="" style="strokeColor=#dddddd;fillColor=#ffffff;shadow=1;strokeWidth=1;rounded=1;absoluteArcSize=1;arcSize=2;labelPosition=center;verticalLabelPosition=middle;align=center;verticalAlign=bottom;spacingLeft=0;fontColor=#999999;fontSize=12;whiteSpace=wrap;spacingBottom=2;html=1;" parent="1" vertex="1">
          <mxGeometry x="210" y="410" width="70" height="70" as="geometry" />
        </mxCell>
        <mxCell id="137" value="" style="dashed=0;connectable=0;html=1;fillColor=#757575;strokeColor=none;shape=mxgraph.gcp2.storage;part=1;" parent="136" vertex="1">
          <mxGeometry x="0.5" width="50" height="40" relative="1" as="geometry">
            <mxPoint x="-25" y="15" as="offset" />
          </mxGeometry>
        </mxCell>
        <mxCell id="138" value="" style="strokeColor=#dddddd;fillColor=#ffffff;shadow=1;strokeWidth=1;rounded=1;absoluteArcSize=1;arcSize=2;labelPosition=center;verticalLabelPosition=middle;align=center;verticalAlign=bottom;spacingLeft=0;fontColor=#999999;fontSize=12;whiteSpace=wrap;spacingBottom=2;html=1;" parent="1" vertex="1">
          <mxGeometry x="170" y="550" width="70" height="70" as="geometry" />
        </mxCell>
        <mxCell id="139" value="" style="dashed=0;connectable=0;html=1;fillColor=#757575;strokeColor=none;shape=mxgraph.gcp2.mobile_devices;part=1;" parent="138" vertex="1">
          <mxGeometry x="0.5" width="50" height="36.5" relative="1" as="geometry">
            <mxPoint x="-25" y="16.75" as="offset" />
          </mxGeometry>
        </mxCell>
        <mxCell id="159" style="edgeStyle=orthogonalEdgeStyle;rounded=0;html=1;labelBackgroundColor=none;startFill=1;startSize=4;endArrow=blockThin;endFill=1;endSize=4;jettySize=auto;orthogonalLoop=1;strokeColor=#4284F3;strokeWidth=2;fontSize=12;fontColor=#000000;align=center;dashed=0;" parent="1" source="rMcf9g8HV1eWvbZJhlMh-201" target="rMcf9g8HV1eWvbZJhlMh-207" edge="1">
          <mxGeometry relative="1" as="geometry" />
        </mxCell>
        <mxCell id="160" style="edgeStyle=orthogonalEdgeStyle;rounded=0;html=1;labelBackgroundColor=none;startFill=1;startSize=4;endArrow=blockThin;endFill=1;endSize=4;jettySize=auto;orthogonalLoop=1;strokeColor=#4284F3;strokeWidth=2;fontSize=12;fontColor=#000000;align=center;dashed=0;" parent="1" source="rMcf9g8HV1eWvbZJhlMh-201" target="rMcf9g8HV1eWvbZJhlMh-209" edge="1">
          <mxGeometry relative="1" as="geometry">
            <Array as="points">
              <mxPoint x="780" y="285" />
              <mxPoint x="780" y="395" />
              <mxPoint x="870" y="395" />
            </Array>
          </mxGeometry>
        </mxCell>
        <mxCell id="161" style="edgeStyle=orthogonalEdgeStyle;rounded=0;html=1;labelBackgroundColor=none;startFill=1;startSize=4;endArrow=blockThin;endFill=1;endSize=4;jettySize=auto;orthogonalLoop=1;strokeColor=#4284F3;strokeWidth=2;fontSize=12;fontColor=#000000;align=center;dashed=0;" parent="1" source="rMcf9g8HV1eWvbZJhlMh-201" target="rMcf9g8HV1eWvbZJhlMh-203" edge="1">
          <mxGeometry relative="1" as="geometry">
            <Array as="points">
              <mxPoint x="658" y="330" />
              <mxPoint x="658" y="330" />
            </Array>
          </mxGeometry>
        </mxCell>
        <mxCell id="158" style="edgeStyle=orthogonalEdgeStyle;rounded=0;html=1;labelBackgroundColor=none;startFill=1;startSize=4;endArrow=blockThin;endFill=1;endSize=4;jettySize=auto;orthogonalLoop=1;strokeColor=#4284F3;strokeWidth=2;fontSize=12;fontColor=#000000;align=center;dashed=0;" parent="1" source="rMcf9g8HV1eWvbZJhlMh-199" target="rMcf9g8HV1eWvbZJhlMh-201" edge="1">
          <mxGeometry relative="1" as="geometry" />
        </mxCell>
        <mxCell id="162" style="edgeStyle=orthogonalEdgeStyle;rounded=0;html=1;labelBackgroundColor=none;startFill=1;startSize=4;endArrow=blockThin;endFill=1;endSize=4;jettySize=auto;orthogonalLoop=1;strokeColor=#4284F3;strokeWidth=2;fontSize=12;fontColor=#000000;align=center;dashed=0;" parent="1" source="rMcf9g8HV1eWvbZJhlMh-203" target="rMcf9g8HV1eWvbZJhlMh-205" edge="1">
          <mxGeometry relative="1" as="geometry">
            <Array as="points">
              <mxPoint x="658" y="460" />
              <mxPoint x="658" y="460" />
            </Array>
          </mxGeometry>
        </mxCell>
        <mxCell id="163" style="edgeStyle=orthogonalEdgeStyle;rounded=0;html=1;labelBackgroundColor=none;startFill=1;startSize=4;endArrow=blockThin;endFill=1;endSize=4;jettySize=auto;orthogonalLoop=1;strokeColor=#4284F3;strokeWidth=2;fontSize=12;fontColor=#000000;align=center;dashed=0;" parent="1" source="rMcf9g8HV1eWvbZJhlMh-205" target="129" edge="1">
          <mxGeometry relative="1" as="geometry" />
        </mxCell>
        <mxCell id="rMcf9g8HV1eWvbZJhlMh-199" value="" style="strokeColor=#dddddd;shadow=1;strokeWidth=1;rounded=1;absoluteArcSize=1;arcSize=2;" parent="1" vertex="1">
          <mxGeometry x="350" y="255" width="180" height="60" as="geometry" />
        </mxCell>
        <mxCell id="rMcf9g8HV1eWvbZJhlMh-200" value="&lt;font color=&quot;#000000&quot;&gt;Messaging&lt;br&gt;(Proximity Streams)&lt;/font&gt;&lt;br&gt;Pub/Sub" style="editableCssRules=.*;html=1;fontColor=#999999;shape=image;verticalLabelPosition=middle;verticalAlign=middle;labelPosition=right;align=left;spacingLeft=20;part=1;points=[];imageAspect=0;image=data:image/svg+xml,PHN2ZyB4bWxucz0iaHR0cDovL3d3dy53My5vcmcvMjAwMC9zdmciIHhtbG5zOnY9Imh0dHBzOi8vdmVjdGEuaW8vbmFubyIgd2lkdGg9IjE4LjMxOTk5OTY5NDgyNDIyIiBoZWlnaHQ9IjIwLjAwMDAwMTkwNzM0ODYzMyIgdmlld0JveD0iMCAwIDE4LjMxOTk5OTY5NDgyNDIyIDIwLjAwMDAwMTkwNzM0ODYzMyI+JiN4YTsJPHN0eWxlIHR5cGU9InRleHQvY3NzIj4mI3hhOwkuc3Qwe2ZpbGw6IzY2OWRmNjt9JiN4YTsJLnN0MXtmaWxsOiM0Mjg1ZjQ7fSYjeGE7CS5zdDJ7ZmlsbDojYWVjYmZhO30mI3hhOwk8L3N0eWxlPiYjeGE7CTxkZWZzPiYjeGE7CQk8ZmlsdGVyIGlkPSJBIiB4PSI0LjY0IiB5PSI0LjE5IiB3aWR0aD0iMTQuNzMiIGhlaWdodD0iMTIuNzYiIGZpbHRlclVuaXRzPSJ1c2VyU3BhY2VPblVzZSIgY29sb3ItaW50ZXJwb2xhdGlvbi1maWx0ZXJzPSJzUkdCIj4mI3hhOwkJCTxmZUZsb29kIGZsb29kLWNvbG9yPSIjZmZmIi8+JiN4YTsJCQk8ZmVCbGVuZCBpbj0iU291cmNlR3JhcGhpYyIvPiYjeGE7CQk8L2ZpbHRlcj4mI3hhOwkJPG1hc2sgaWQ9IkIiIHg9IjQuNjQiIHk9IjQuMTkiIHdpZHRoPSIxNC43MyIgaGVpZ2h0PSIxMi43NiIgbWFza1VuaXRzPSJ1c2VyU3BhY2VPblVzZSI+JiN4YTsJCQk8Y2lyY2xlIGN4PSIxMiIgY3k9IjEyLjIzIiByPSIzLjU4IiBmaWx0ZXI9InVybCgjQSkiLz4mI3hhOwkJPC9tYXNrPiYjeGE7CTwvZGVmcz4mI3hhOwk8ZyBjbGFzcz0ic3QwIj4mI3hhOwkJPGNpcmNsZSBjeD0iMTYuMTMiIGN5PSI2LjIxIiByPSIxLjcyIi8+JiN4YTsJCTxjaXJjbGUgY3g9IjIuMTkiIGN5PSI2LjIxIiByPSIxLjcyIi8+JiN4YTsJCTxjaXJjbGUgY3g9IjkuMTYiIGN5PSIxOC4yOCIgcj0iMS43MiIvPiYjeGE7CTwvZz4mI3hhOwk8ZyBtYXNrPSJ1cmwoI0IpIiB0cmFuc2Zvcm09InRyYW5zbGF0ZSgtMi44NCAtMikiPiYjeGE7CQk8cGF0aCB0cmFuc2Zvcm09Im1hdHJpeCguNSAtLjg3IC44NyAuNSAtNC41OSAyMC41MykiIGQ9Ik0xNC42OSAxMC4yMmgxLjU5djguMDRoLTEuNTl6IiBjbGFzcz0ic3QxIi8+JiN4YTsJCTxwYXRoIHRyYW5zZm9ybT0icm90YXRlKDMzMCA4LjUyMyAxNC4yNDQpIiBkPSJNNC40OSAxMy40NWg4LjA0djEuNTlINC40OXoiIGNsYXNzPSJzdDEiLz4mI3hhOwkJPHBhdGggZD0iTTExLjIgNC4xOWgxLjU5djguMDRIMTEuMnoiIGNsYXNzPSJzdDEiLz4mI3hhOwk8L2c+JiN4YTsJPGcgY2xhc3M9InN0MiI+JiN4YTsJCTxjaXJjbGUgY3g9IjkuMTYiIGN5PSIxMC4yMyIgcj0iMi43OCIvPiYjeGE7CQk8Y2lyY2xlIGN4PSIyLjE5IiBjeT0iMTQuMjUiIHI9IjIuMTkiLz4mI3hhOwkJPGNpcmNsZSBjeD0iMTYuMTMiIGN5PSIxNC4yNSIgcj0iMi4xOSIvPiYjeGE7CQk8Y2lyY2xlIGN4PSI5LjE2IiBjeT0iMi4xOSIgcj0iMi4xOSIvPiYjeGE7CTwvZz4mI3hhOzwvc3ZnPg==;" parent="rMcf9g8HV1eWvbZJhlMh-199" vertex="1">
          <mxGeometry width="27" height="30" relative="1" as="geometry">
            <mxPoint x="16" y="15" as="offset" />
          </mxGeometry>
        </mxCell>
        <mxCell id="rMcf9g8HV1eWvbZJhlMh-201" value="" style="strokeColor=#dddddd;shadow=1;strokeWidth=1;rounded=1;absoluteArcSize=1;arcSize=2;" parent="1" vertex="1">
          <mxGeometry x="560" y="255" width="180" height="60" as="geometry" />
        </mxCell>
        <mxCell id="rMcf9g8HV1eWvbZJhlMh-202" value="&lt;font color=&quot;#000000&quot;&gt;Processing&lt;br&gt;(Stream Processing)&lt;/font&gt;&lt;br&gt;Dataflow" style="editableCssRules=.*;html=1;fontColor=#999999;shape=image;verticalLabelPosition=middle;verticalAlign=middle;labelPosition=right;align=left;spacingLeft=20;part=1;points=[];imageAspect=0;image=data:image/svg+xml,PHN2ZyB4bWxucz0iaHR0cDovL3d3dy53My5vcmcvMjAwMC9zdmciIHhtbG5zOnY9Imh0dHBzOi8vdmVjdGEuaW8vbmFubyIgd2lkdGg9IjE0LjUxOTk5OTUwNDA4OTM1NSIgaGVpZ2h0PSIyMCIgdmlld0JveD0iMCAwIDE0LjUxOTk5OTUwNDA4OTM1NSAyMCI+JiN4YTsJPHN0eWxlIHR5cGU9InRleHQvY3NzIj4mI3hhOwkuc3Qwe2ZpbGwtcnVsZTpldmVub2RkfSYjeGE7CS5zdDF7ZmlsbDojNjY5ZGY2O30mI3hhOwkuc3Qye2ZpbGw6I2FlY2JmYTt9JiN4YTsJLnN0M3tmaWxsOiM0Mjg1ZjQ7fSYjeGE7CTwvc3R5bGU+JiN4YTsJPGcgY2xhc3M9InN0MCI+JiN4YTsJCTxwYXRoIGNsYXNzPSJzdDEiIGQ9Ik03LjM3IDIuMDNsLTEuNzIuOTYgMS41MiAxLjUtLjAyIDEuNzMgMS4wMi4wMS4wMi0xLjczIDQuMjQgMi41Ni0uMDEgMS4wNyAxLjc3LjAzVjYuMTFMOS4wNSAzLjA0bC0uMjctLjk0eiIvPiYjeGE7CQk8cGF0aCBjbGFzcz0ic3QyIiBkPSJNNy4zNiAyLjAzbC0xLjQyLjM1LS4yOS42MUwuMzkgNS45Mi4zNiA3Ljk3IDIuMTQgOGwuMDItMS4wNyA0LjMxLTIuNDUtLjAyIDEuNzMuODYuMDEuMDYtNC4xOXoiLz4mI3hhOwkJPGcgY2xhc3M9InN0MSI+JiN4YTsJCQk8cGF0aCBkPSJNNy4zNiAyLjAzTDMuOTUgMCAyLjIxLjk1bDMuNDQgMi4wNCAxLjcyLS45NnptLjcxIDExLjc2bC0xLjcyLS4wMi0uMDIgMS43Mi44MiAyLjQ4IDEuNDItLjEyLjI5LS44NSA1LjI3LTIuOTMuMDMtMi4wOS0xLjc5LS4wMi0uMDIgMS4xLTQuMyAyLjQ1eiIvPiYjeGE7CQkJPHBhdGggZD0iTTcuMTUgMTcuOTdsLTMuNDYgMS45NGgtLjA1bC0xLjY2LS45OSAzLjQ5LTEuOTYgMS42OCAxLjAxeiIvPiYjeGE7CQk8L2c+JiN4YTsJCTxwYXRoIGNsYXNzPSJzdDMiIGQ9Ik0xMC44OC4wOWgtLjA1TDcuMzcgMi4wM2wxLjY4IDEuMDEgMy40OS0xLjk2ek0xMC42MiAyMGgtLjA1bC0zLjQyLTIuMDNoMCAwIDBsMS43Mi0uOTYgMy40NCAyLjA0eiIvPiYjeGE7CQk8cGF0aCBjbGFzcz0ic3QyIiBkPSJNLjMzIDEzLjg5di0yaDEuNzZsLS4wMSAxLjA0IDQuMjUgMi41Ni4wMi0xLjcyLjg2LjAxLS4wNiA0LjE4LTEuNjgtMXoiLz4mI3hhOwk8L2c+JiN4YTsJPGNpcmNsZSBjbGFzcz0ic3QyIiBjeD0iMTMuMzgiIGN5PSIxMC4wNCIgcj0iMS4xNCIvPiYjeGE7CTxjaXJjbGUgY2xhc3M9InN0MiIgY3g9IjEuMTQiIGN5PSI5Ljg4IiByPSIxLjE0Ii8+JiN4YTsJPGNpcmNsZSBjbGFzcz0ic3QyIiBjeD0iNy4zMiIgY3k9IjcuOTkiIHI9IjEuMTQiLz4mI3hhOwk8Y2lyY2xlIGNsYXNzPSJzdDIiIGN4PSI3LjIzIiBjeT0iMTIiIHI9IjEuMTQiLz4mI3hhOzwvc3ZnPg==;" parent="rMcf9g8HV1eWvbZJhlMh-201" vertex="1">
          <mxGeometry width="22" height="30" relative="1" as="geometry">
            <mxPoint x="19" y="15" as="offset" />
          </mxGeometry>
        </mxCell>
        <mxCell id="rMcf9g8HV1eWvbZJhlMh-203" value="" style="strokeColor=#dddddd;shadow=1;strokeWidth=1;rounded=1;absoluteArcSize=1;arcSize=2;" parent="1" vertex="1">
          <mxGeometry x="560" y="365" width="195" height="60" as="geometry" />
        </mxCell>
        <mxCell id="rMcf9g8HV1eWvbZJhlMh-204" value="&lt;font color=&quot;#000000&quot;&gt;Messaging&lt;br&gt;(Queued Notifications)&lt;/font&gt;&lt;br&gt;Pub/Sub" style="editableCssRules=.*;html=1;fontColor=#999999;shape=image;verticalLabelPosition=middle;verticalAlign=middle;labelPosition=right;align=left;spacingLeft=20;part=1;points=[];imageAspect=0;image=data:image/svg+xml,PHN2ZyB4bWxucz0iaHR0cDovL3d3dy53My5vcmcvMjAwMC9zdmciIHhtbG5zOnY9Imh0dHBzOi8vdmVjdGEuaW8vbmFubyIgd2lkdGg9IjE4LjMxOTk5OTY5NDgyNDIyIiBoZWlnaHQ9IjIwLjAwMDAwMTkwNzM0ODYzMyIgdmlld0JveD0iMCAwIDE4LjMxOTk5OTY5NDgyNDIyIDIwLjAwMDAwMTkwNzM0ODYzMyI+JiN4YTsJPHN0eWxlIHR5cGU9InRleHQvY3NzIj4mI3hhOwkuc3Qwe2ZpbGw6IzY2OWRmNjt9JiN4YTsJLnN0MXtmaWxsOiM0Mjg1ZjQ7fSYjeGE7CS5zdDJ7ZmlsbDojYWVjYmZhO30mI3hhOwk8L3N0eWxlPiYjeGE7CTxkZWZzPiYjeGE7CQk8ZmlsdGVyIGlkPSJBIiB4PSI0LjY0IiB5PSI0LjE5IiB3aWR0aD0iMTQuNzMiIGhlaWdodD0iMTIuNzYiIGZpbHRlclVuaXRzPSJ1c2VyU3BhY2VPblVzZSIgY29sb3ItaW50ZXJwb2xhdGlvbi1maWx0ZXJzPSJzUkdCIj4mI3hhOwkJCTxmZUZsb29kIGZsb29kLWNvbG9yPSIjZmZmIi8+JiN4YTsJCQk8ZmVCbGVuZCBpbj0iU291cmNlR3JhcGhpYyIvPiYjeGE7CQk8L2ZpbHRlcj4mI3hhOwkJPG1hc2sgaWQ9IkIiIHg9IjQuNjQiIHk9IjQuMTkiIHdpZHRoPSIxNC43MyIgaGVpZ2h0PSIxMi43NiIgbWFza1VuaXRzPSJ1c2VyU3BhY2VPblVzZSI+JiN4YTsJCQk8Y2lyY2xlIGN4PSIxMiIgY3k9IjEyLjIzIiByPSIzLjU4IiBmaWx0ZXI9InVybCgjQSkiLz4mI3hhOwkJPC9tYXNrPiYjeGE7CTwvZGVmcz4mI3hhOwk8ZyBjbGFzcz0ic3QwIj4mI3hhOwkJPGNpcmNsZSBjeD0iMTYuMTMiIGN5PSI2LjIxIiByPSIxLjcyIi8+JiN4YTsJCTxjaXJjbGUgY3g9IjIuMTkiIGN5PSI2LjIxIiByPSIxLjcyIi8+JiN4YTsJCTxjaXJjbGUgY3g9IjkuMTYiIGN5PSIxOC4yOCIgcj0iMS43MiIvPiYjeGE7CTwvZz4mI3hhOwk8ZyBtYXNrPSJ1cmwoI0IpIiB0cmFuc2Zvcm09InRyYW5zbGF0ZSgtMi44NCAtMikiPiYjeGE7CQk8cGF0aCB0cmFuc2Zvcm09Im1hdHJpeCguNSAtLjg3IC44NyAuNSAtNC41OSAyMC41MykiIGQ9Ik0xNC42OSAxMC4yMmgxLjU5djguMDRoLTEuNTl6IiBjbGFzcz0ic3QxIi8+JiN4YTsJCTxwYXRoIHRyYW5zZm9ybT0icm90YXRlKDMzMCA4LjUyMyAxNC4yNDQpIiBkPSJNNC40OSAxMy40NWg4LjA0djEuNTlINC40OXoiIGNsYXNzPSJzdDEiLz4mI3hhOwkJPHBhdGggZD0iTTExLjIgNC4xOWgxLjU5djguMDRIMTEuMnoiIGNsYXNzPSJzdDEiLz4mI3hhOwk8L2c+JiN4YTsJPGcgY2xhc3M9InN0MiI+JiN4YTsJCTxjaXJjbGUgY3g9IjkuMTYiIGN5PSIxMC4yMyIgcj0iMi43OCIvPiYjeGE7CQk8Y2lyY2xlIGN4PSIyLjE5IiBjeT0iMTQuMjUiIHI9IjIuMTkiLz4mI3hhOwkJPGNpcmNsZSBjeD0iMTYuMTMiIGN5PSIxNC4yNSIgcj0iMi4xOSIvPiYjeGE7CQk8Y2lyY2xlIGN4PSI5LjE2IiBjeT0iMi4xOSIgcj0iMi4xOSIvPiYjeGE7CTwvZz4mI3hhOzwvc3ZnPg==;" parent="rMcf9g8HV1eWvbZJhlMh-203" vertex="1">
          <mxGeometry width="27" height="30" relative="1" as="geometry">
            <mxPoint x="16" y="15" as="offset" />
          </mxGeometry>
        </mxCell>
        <mxCell id="rMcf9g8HV1eWvbZJhlMh-205" value="" style="strokeColor=#dddddd;shadow=1;strokeWidth=1;rounded=1;absoluteArcSize=1;arcSize=2;" parent="1" vertex="1">
          <mxGeometry x="560" y="475" width="170" height="60" as="geometry" />
        </mxCell>
        <mxCell id="rMcf9g8HV1eWvbZJhlMh-206" value="&lt;font color=&quot;#000000&quot;&gt;Notifications&lt;br&gt;(Push to Devices)&lt;/font&gt;&lt;br&gt;App Engine" style="editableCssRules=.*;html=1;fontColor=#999999;shape=image;verticalLabelPosition=middle;verticalAlign=middle;labelPosition=right;align=left;spacingLeft=20;part=1;points=[];imageAspect=0;image=data:image/svg+xml,PHN2ZyB4bWxucz0iaHR0cDovL3d3dy53My5vcmcvMjAwMC9zdmciIHhtbG5zOnY9Imh0dHBzOi8vdmVjdGEuaW8vbmFubyIgd2lkdGg9IjIwIiBoZWlnaHQ9IjE2LjAyMDAwMDQ1Nzc2MzY3MiIgZmlsbC1ydWxlPSJldmVub2RkIiB2aWV3Qm94PSI4Ljk0MDY5NjcxNjMwODU5NGUtOCAwIDIwIDE2LjAyMDAwMDQ1Nzc2MzY3MiI+JiN4YTsJPHN0eWxlIHR5cGU9InRleHQvY3NzIj4mI3hhOwkuc3Qwe2ZpbGw6IzQyODVmNDt9JiN4YTsJLnN0MXtmaWxsOiNhZWNiZmE7fSYjeGE7CS5zdDJ7ZmlsbDojNjY5ZGY2O30mI3hhOwk8L3N0eWxlPiYjeGE7CTxwYXRoIGNsYXNzPSJzdDAiIGQ9Ik0xMi4zIDcuMjZsLTEuMjIgMS4yMkExLjcxIDEuNzEgMCAwIDEgMTAgMTEuNDlhMS43NCAxLjc0IDAgMCAxLTEuMzMtLjY0bC0xLjIyIDEuMjJhMy40MyAzLjQzIDAgMCAwIDUuOTg0LTEuMzgxQTMuNDMgMy40MyAwIDAgMCAxMi4zIDcuMjZ6Ii8+JiN4YTsJPHBhdGggY2xhc3M9InN0MSIgZD0iTTEwIDMuNTJhNi4yNSA2LjI1IDAgMCAwIDAgMTIuNSA2LjI1IDYuMjUgMCAwIDAgMC0xMi41bTAgMTAuNzRhNC40NSA0LjQ1IDAgMCAxLTMuMTU3LTcuNTk3QTQuNDUgNC40NSAwIDAgMSAxNC40NCA5LjgyIDQuNDQgNC40NCAwIDAgMSAxMCAxNC4yNiIvPiYjeGE7CTxwYXRoIGNsYXNzPSJzdDIiIGQ9Ik0xOS42MiA5LjE2bC0yLjU2LS44MWE3LjEgNy4xIDAgMCAxIC4xNyAxLjUzIDcuNjIgNy42MiAwIDAgMS0uMDggMS4wOGgyLjQ3YS40NC40NCAwIDAgMCAuMzgtLjQydi0xYS40NC40NCAwIDAgMC0uMzgtLjQyTTEwIDIuNzhhNy40OCA3LjQ4IDAgMCAxIDEuNS4xNUwxMC41OC4zOGMtLjA3LS4yMi0uMjEtLjM4LS40Mi0uMzhoLS4zOGEuNDUuNDUgMCAwIDAtLjQyLjM4bC0uOCAyLjU0QTcuNjQgNy42NCAwIDAgMSAxMCAyLjc4bS03LjIzIDcuMWE3LjEgNy4xIDAgMCAxIC4xNy0xLjUzbC0yLjU2LjgxYS40NC40NCAwIDAgMC0uMzguNDJ2MWEuNDQuNDQgMCAwIDAgLjM4LjQyaDIuNDdhNy42MiA3LjYyIDAgMCAxLS4wOC0xLjA4Ii8+JiN4YTsJPHBhdGggY2xhc3M9InN0MSIgZD0iTTEwIDcuMjZhMi41IDIuNSAwIDEgMCAwIDUgMi41IDIuNSAwIDEgMCAwLTV6bTAgMy43NWExLjI1IDEuMjUgMCAxIDEgMC0yLjUgMS4yNSAxLjI1IDAgMCAxIDEuMjUgMS4yNUExLjI1IDEuMjUgMCAwIDEgMTAgMTEuMDJ6Ii8+JiN4YTs8L3N2Zz4=;" parent="rMcf9g8HV1eWvbZJhlMh-205" vertex="1">
          <mxGeometry width="30" height="24" relative="1" as="geometry">
            <mxPoint x="15" y="18" as="offset" />
          </mxGeometry>
        </mxCell>
        <mxCell id="rMcf9g8HV1eWvbZJhlMh-207" value="" style="strokeColor=#dddddd;shadow=1;strokeWidth=1;rounded=1;absoluteArcSize=1;arcSize=2;" parent="1" vertex="1">
          <mxGeometry x="800" y="255" width="180" height="60" as="geometry" />
        </mxCell>
        <mxCell id="rMcf9g8HV1eWvbZJhlMh-208" value="&lt;font color=&quot;#000000&quot;&gt;Events&lt;br&gt;(Proximity Events)&lt;/font&gt;&lt;br&gt;Cloud Bigtable" style="editableCssRules=.*;html=1;fontColor=#999999;shape=image;verticalLabelPosition=middle;verticalAlign=middle;labelPosition=right;align=left;spacingLeft=20;part=1;points=[];imageAspect=0;image=data:image/svg+xml,PHN2ZyB4bWxucz0iaHR0cDovL3d3dy53My5vcmcvMjAwMC9zdmciIHhtbG5zOnY9Imh0dHBzOi8vdmVjdGEuaW8vbmFubyIgd2lkdGg9IjE3Ljk1Njk3Nzg0NDIzODI4IiBoZWlnaHQ9IjIwLjAwOTI1NjM2MjkxNTA0IiB2aWV3Qm94PSItMC4wMDA0MjE5NjUxMTY0MDIxMzQzIDAuMDAwMDc0Njk5NTIxMDY0NzU4MyAxNy45NTY5Nzc4NDQyMzgyOCAyMC4wMDkyNTYzNjI5MTUwNCI+JiN4YTsJPHN0eWxlPiYjeGE7CQkuc3Qwe2ZpbGw6IzY2OWRmNjt9JiN4YTsJCS5zdDF7ZmlsbDojYWVjYmZhO30mI3hhOwkJLnN0MntmaWxsOiM0Mjg1ZjQ7fSYjeGE7CTwvc3R5bGU+JiN4YTsJPGcgZmlsbC1ydWxlPSJldmVub2RkIj4mI3hhOwkJPHBhdGggZD0iTTEzLjE5NiA0LjQ0N2wtNC4yMi0yLjUxYTIuODYgMi44NiAwIDAgMS0xLjI1LTEuNzFjMCAwIC4xNi0uMzIuMzgtLjJsNS4yNSAzLjFjLjYzLjM3LjI0IDIgLjI0IDJhLjc3Ljc3IDAgMCAwLS40LS42OHoiIGNsYXNzPSJzdDAiLz4mI3hhOwkJPHBhdGggZD0iTTE0LjQ2NiAxMC42ODdhLjM1LjM1IDAgMCAxLS4xNi4zM2wtMSAuNjh2LTcuOTVjMC0uMjcuMTctLjU2LS4wNi0uN2wuOTIuNjhhLjczLjczIDAgMCAxIC4zNS42NXoiIGNsYXNzPSJzdDEiLz4mI3hhOwkJPHBhdGggZD0iTTguOTc2IDExLjU5N2EuMzYuMzYgMCAwIDEtLjItLjA2bC0zLjQ2LTIuMDZ2LjlsMy42NiAyLjE4LjI5LS41N3MtLjIyLS4zOS0uMjktLjM5em0uMiAxLjhhLjM2LjM2IDAgMCAxLS40IDBsLTMuNDYtMi4wNnYuNjZhLjQyLjQyIDAgMCAwIC4xOS4zNWwzLjI4IDJhLjM3LjM3IDAgMCAwIC4zOCAwIDIgMiAwIDAgMCAuMi0uNTJsLS4xOS0uMzl6IiBjbGFzcz0ic3QwIi8+JiN4YTsJCTxwYXRoIGQ9Ik04Ljk3NiAxMC43MjdsMy42Ni0yLjE4di0uNDNhLjM5LjM5IDAgMCAwLS4xOS0uMzRsLTMuMjgtMmEuMzcuMzcgMCAwIDAtLjM4IDBsLTMuMjggMmEuNDEuNDEgMCAwIDAtLjE5LjM0di40M3oiIGNsYXNzPSJzdDEiLz4mI3hhOwkJPHBhdGggZD0iTTguOTc2IDkuODI3bC0zLjQ3LTIuMDVhLjQxLjQxIDAgMCAwLS4xOS4zNHYuNDNsMy42NiAyLjE4LjI4LS41NnoiIGNsYXNzPSJzdDAiLz4mI3hhOwkJPGcgY2xhc3M9InN0MiI+JiN4YTsJCQk8cGF0aCBkPSJNOC45NzYgMTEuNTk3djFsMy42Ni0yLjE4di0uOWwtMy40NiAyLjAyYS42NS42NSAwIDAgMS0uMi4wNnptLjIgMS44YS4zNi4zNiAwIDAgMS0uMi4wNnYuOWEuNS41IDAgMCAwIC4yMS0uMDVsMy4yOC0yYS4zOS4zOSAwIDAgMCAuMTktLjM1di0uNjZ6Ii8+JiN4YTsJCQk8cGF0aCBkPSJNMTIuNDQ2IDcuNzc3bC0zLjQ3IDIuMDV2LjlsMy42Ni0yLjE4di0uNDNhLjM5LjM5IDAgMCAwLS4xOS0uMzR6Ii8+JiN4YTsJCTwvZz4mI3hhOwkJPHBhdGggZD0iTTQuNzU2IDE1LjUyN2w0LjE1IDIuNDdhMi43MiAyLjcyIDAgMCAxIDEuMjggMS44LjE4LjE4IDAgMCAxLS4yOC4xOGwtNS40NS0zLjIzYy0uNTMtLjMyLS4wNy0xLjg4LS4wNy0xLjg4YS43Ny43NyAwIDAgMCAuMzcuNjZ6IiBjbGFzcz0ic3QwIi8+JiN4YTsJCTxwYXRoIGQ9Ik0zLjQ4NiAxNS43Mjd2LTYuNTZhLjQxLjQxIDAgMCAxIC4xOS0uMzNsMS0uNTl2Ny45MWMwIC4yNyAwIC42OS4yMS44M2wtMS4wNi0uNjZhLjc1Ljc1IDAgMCAxLS4zNC0uNnoiIGNsYXNzPSJzdDEiLz4mI3hhOwkJPHBhdGggZD0iTTcuMTM2IDMuNDU3YS43NS43NSAwIDAgMC0uNzQgMGwtNC4yIDIuNTRhMi42MyAyLjYzIDAgMCAxLTIuMDguMjYuMjMuMjMgMCAwIDEgMC0uNGMuMTgtLjA5IDYuMzItMy43NCA2LjMyLTMuNzQuMjMtLjE0Ljc0IDEuMzkuNzQgMS4zOXoiIGNsYXNzPSJzdDAiLz4mI3hhOwkJPHBhdGggZD0iTTcuMTI2IDIuMDc3bDUuMzIgMy4xNWEuMzcuMzcgMCAwIDEgLjIuMzF2MS4xOGwtNi42Ny0zLjk2YS43NS43NSAwIDAgMC0uNzQgMGwxLjE4LS42OWEuNzEuNzEgMCAwIDEgLjczIDB6IiBjbGFzcz0ic3QxIi8+JiN4YTsJCTxwYXRoIGQ9Ik0xMC43OTYgMTYuNDg3YS43My43MyAwIDAgMCAuNzQgMGw0LjItMi40OWEyLjYzIDIuNjMgMCAwIDEgMi4xLS4yNS4yMS4yMSAwIDAgMSAwIC4zOGwtNi4zMyAzLjc1Yy0uMjIuMTQtLjc0LTEuNC0uNzQtMS40eiIgY2xhc3M9InN0MCIvPiYjeGE7CQk8cGF0aCBkPSJNNS40ODYgMTQuNzQ3YS41Ni41NiAwIDAgMS0uMTctLjMzdi0xLjE2bDYuNjYgMy45M2EuNjkuNjkgMCAwIDAgLjczIDBsLTEuMTguN2EuNy43IDAgMCAxLS43NCAweiIgY2xhc3M9InN0MSIvPiYjeGE7CQk8cGF0aCBkPSJNMy4yMzYgNy44MDdhLjc2Ljc2IDAgMCAwLS4zNy42NXY1YTIuNzUgMi43NSAwIDAgMS0uODcgMiAuMTguMTggMCAwIDEtLjMtLjEzdi03LjU2YzAtLjI4IDEuNTQgMCAxLjU0IDB6IiBjbGFzcz0ic3QwIi8+JiN4YTsJCTxwYXRoIGQ9Ik02Ljc0NiA0LjUxN2EuMzQuMzQgMCAwIDEgLjM2IDBsMSAuNTktNi4wOCAzLjU2YS43Ny43NyAwIDAgMC0uMzcuNjZ2LTEuMzlhLjcyLjcyIDAgMCAxIC4zOC0uNjR6IiBjbGFzcz0ic3QxIi8+JiN4YTsJCTxwYXRoIGQ9Ik0xNS4xNDYgMTEuNDM3di01YTIuODEgMi44MSAwIDAgMSAuODQtMmMwIDAgLjMzLS4xMS4zMS4yMXMwIDcuMzcgMCA3LjM3Yy0uMzEuMzctMS42MSAwLTEuNjEgMGEuODEuODEgMCAwIDAgLjQ2LS41OHoiIGNsYXNzPSJzdDAiLz4mI3hhOwkJPHBhdGggZD0iTTE1Ljk3NiAxMi42MDdsLTQuNzQgMi44NWEuMzUuMzUgMCAwIDEtLjM3IDBsLTEtLjU3IDYuMTEtMy42N2EuNzcuNzcgMCAwIDAgLjM3LS42NnYxLjQ0Yy0uMDIuMjMtLjM3LjYxLS4zNy42MXoiIGNsYXNzPSJzdDEiLz4mI3hhOwk8L2c+JiN4YTs8L3N2Zz4=;" parent="rMcf9g8HV1eWvbZJhlMh-207" vertex="1">
          <mxGeometry width="27" height="30" relative="1" as="geometry">
            <mxPoint x="16" y="15" as="offset" />
          </mxGeometry>
        </mxCell>
        <mxCell id="rMcf9g8HV1eWvbZJhlMh-209" value="" style="strokeColor=#dddddd;shadow=1;strokeWidth=1;rounded=1;absoluteArcSize=1;arcSize=2;" parent="1" vertex="1">
          <mxGeometry x="800" y="365" width="180" height="60" as="geometry" />
        </mxCell>
        <mxCell id="rMcf9g8HV1eWvbZJhlMh-210" value="&lt;font color=&quot;#000000&quot;&gt;Analytics&lt;br&gt;(Data Warehouse)&lt;/font&gt;&lt;br&gt;BigQuery" style="editableCssRules=.*;html=1;fontColor=#999999;shape=image;verticalLabelPosition=middle;verticalAlign=middle;labelPosition=right;align=left;spacingLeft=20;part=1;points=[];imageAspect=0;image=data:image/svg+xml,PHN2ZyB4bWxucz0iaHR0cDovL3d3dy53My5vcmcvMjAwMC9zdmciIHhtbG5zOnY9Imh0dHBzOi8vdmVjdGEuaW8vbmFubyIgd2lkdGg9IjIwLjAwMTA0NTIyNzA1MDc4IiBoZWlnaHQ9IjIwLjAwMTA0NTIyNzA1MDc4IiBmaWxsLXJ1bGU9ImV2ZW5vZGQiIHZpZXdCb3g9IjAgMCAyMC4wMDEwNDUyMjcwNTA3OCAyMC4wMDEwNDUyMjcwNTA3OCI+JiN4YTsJPHN0eWxlIHR5cGU9InRleHQvY3NzIj4mI3hhOwkuc3Qwe2ZpbGw6I2FlY2JmYTt9JiN4YTsJLnN0MXtmaWxsOiM2NjlkZjY7fSYjeGE7CS5zdDJ7ZmlsbDojNDI4NWY0O30mI3hhOwk8L3N0eWxlPiYjeGE7CTxwYXRoIGNsYXNzPSJzdDAiIGQ9Ik00LjczIDguODN2Mi42M2E0LjkxIDQuOTEgMCAwIDAgMS43MSAxLjc0VjguODN6Ii8+JiN4YTsJPHBhdGggY2xhc3M9InN0MSIgZD0iTTcuODkgNi40MXY3LjUzQTcuNjIgNy42MiAwIDAgMCA5IDE0YTggOCAwIDAgMCAxIDBWNi40MXoiLz4mI3hhOwk8cGF0aCBjbGFzcz0ic3QwIiBkPSJNMTEuNjQgOS44NnYzLjI5YTUgNSAwIDAgMCAxLjctMS44MlY5Ljg2eiIvPiYjeGE7CTxwYXRoIGNsYXNzPSJzdDIiIGQ9Ik0xNS43NCAxNC4zMmwtMS40MiAxLjQyYS40Mi40MiAwIDAgMCAwIC42bDMuNTQgMy41NGEuNDIuNDIgMCAwIDAgLjU5IDBsMS40My0xLjQzYS40Mi40MiAwIDAgMCAwLS41OWwtMy41NC0zLjU0YS40Mi40MiAwIDAgMC0uNiAwIi8+JiN4YTsJPHBhdGggY2xhc3M9InN0MSIgZD0iTTkgMGE5IDkgMCAxIDAgMCAxOEE5IDkgMCAxIDAgOSAwbTAgMTUuNjlhNi42OCA2LjY4IDAgMCAxIC4wMDctMTMuMzYgNi42OCA2LjY4IDAgMCAxIDQuNzI3IDExLjQwM0E2LjY4IDYuNjggMCAwIDEgOSAxNS42OSIvPiYjeGE7PC9zdmc+;" parent="rMcf9g8HV1eWvbZJhlMh-209" vertex="1">
          <mxGeometry width="30" height="30" relative="1" as="geometry">
            <mxPoint x="15" y="15" as="offset" />
          </mxGeometry>
        </mxCell>
        <mxCell id="3" value="" style="shape=mxgraph.gcp2.google_cloud_platform;fillColor=#F6F6F6;strokeColor=none;shadow=0;gradientColor=none;" parent="1" vertex="1">
          <mxGeometry x="350" y="110" width="23" height="20" as="geometry">
            <mxPoint x="20" y="10" as="offset" />
          </mxGeometry>
        </mxCell>
        <mxCell id="FMOi6vV2VER36_XZcloE-167" value="" style="shape=mxgraph.gcp2.doubleRect;strokeColor=#dddddd;shadow=1;strokeWidth=1;" vertex="1" parent="1">
          <mxGeometry x="338.39" y="670" width="451.61" height="190" as="geometry" />
        </mxCell>
        <mxCell id="FMOi6vV2VER36_XZcloE-168" value="&lt;font color=&quot;#000000&quot;&gt;Name&lt;/font&gt;&lt;br&gt;Firebase" style="sketch=0;dashed=0;connectable=0;html=1;fillColor=#5184F3;strokeColor=none;shape=mxgraph.gcp2.firebase;part=1;labelPosition=right;verticalLabelPosition=middle;align=left;verticalAlign=middle;spacingLeft=5;fontColor=#999999;fontSize=12;" vertex="1" parent="FMOi6vV2VER36_XZcloE-167">
          <mxGeometry width="32.4" height="45" relative="1" as="geometry">
            <mxPoint x="5" y="7" as="offset" />
          </mxGeometry>
        </mxCell>
        <mxCell id="FMOi6vV2VER36_XZcloE-209" value="" style="shape=image;verticalLabelPosition=bottom;labelBackgroundColor=default;verticalAlign=top;aspect=fixed;imageAspect=0;image=https://miro.medium.com/v2/resize:fit:1358/0*Znj-04sinj7rfY3i;" vertex="1" parent="1">
          <mxGeometry x="180" y="1070" width="231.77" height="110" as="geometry" />
        </mxCell>
        <mxCell id="FMOi6vV2VER36_XZcloE-210" value="" style="endArrow=classic;html=1;rounded=0;entryX=0.298;entryY=1.04;entryDx=0;entryDy=0;entryPerimeter=0;exitX=0.634;exitY=0;exitDx=0;exitDy=0;exitPerimeter=0;" edge="1" parent="1" source="FMOi6vV2VER36_XZcloE-209" target="FMOi6vV2VER36_XZcloE-167">
          <mxGeometry width="50" height="50" relative="1" as="geometry">
            <mxPoint x="440" y="940" as="sourcePoint" />
            <mxPoint x="490" y="890" as="targetPoint" />
          </mxGeometry>
        </mxCell>
        <mxCell id="FMOi6vV2VER36_XZcloE-211" value="1.Sign In" style="edgeLabel;html=1;align=center;verticalAlign=middle;resizable=0;points=[];" vertex="1" connectable="0" parent="FMOi6vV2VER36_XZcloE-210">
          <mxGeometry x="-0.3732" y="-2" relative="1" as="geometry">
            <mxPoint y="-16" as="offset" />
          </mxGeometry>
        </mxCell>
        <mxCell id="FMOi6vV2VER36_XZcloE-212" value="" style="endArrow=classic;html=1;rounded=0;entryX=0.303;entryY=0;entryDx=0;entryDy=0;entryPerimeter=0;exitX=0.156;exitY=1.022;exitDx=0;exitDy=0;exitPerimeter=0;" edge="1" parent="1" source="FMOi6vV2VER36_XZcloE-167" target="FMOi6vV2VER36_XZcloE-209">
          <mxGeometry width="50" height="50" relative="1" as="geometry">
            <mxPoint x="467" y="980" as="sourcePoint" />
            <mxPoint x="467" y="873" as="targetPoint" />
          </mxGeometry>
        </mxCell>
        <mxCell id="FMOi6vV2VER36_XZcloE-213" value="2.Generate JWT" style="edgeLabel;html=1;align=center;verticalAlign=middle;resizable=0;points=[];" vertex="1" connectable="0" parent="FMOi6vV2VER36_XZcloE-212">
          <mxGeometry x="-0.3732" y="-2" relative="1" as="geometry">
            <mxPoint y="26" as="offset" />
          </mxGeometry>
        </mxCell>
        <mxCell id="FMOi6vV2VER36_XZcloE-214" value="" style="shape=image;verticalLabelPosition=bottom;labelBackgroundColor=default;verticalAlign=top;aspect=fixed;imageAspect=0;image=data:image/png,iVBORw0KGgoAAAANSUhEUgAAAXEAAACJCAMAAADt7/hWAAAAYFBMVEX///8tvK8mu6110Mfe9PJCwrb1/PwYuavM7epnzMMSuKq25eD7/v4At6ny+/rn9/VYx7zB6eWG1c3Z8u+o3tjR7+xKw7if3ddfyb/j9vSJ1s5rzMOx496R2NE2v7KX2tOfaYSXAAAMk0lEQVR4nN1d6YKyOgz9KEKxLAIiuIHv/5YXRGdEWU664dzze8Y2acje9N+/PwH/kBX1tvQa546m3Oa3a7aP1t7X/xH+KayPTiw4Z8x5AeOcC1Hm15Mltkd+kuz2QZCFWRYE+yTx/4fn7W8Kt4nfWD0E4yKtD0Zpj3anrMrdtGEiFqI9+u6ohWBe6lbZKTG5tF3sMrdsBXua2T/gorxtDG1iX7Ss5mL01Fl73Ny7VIedmcWtwg+3jkC4/WQ6S0PdeziFecvs9szn99Gqt+YY/nFR3+cMEu4h4U3l69vCofbYIrN/1m7/dJvpW9wyotCLqezuwXmlR6EHOROcuDgTTvUnBT25OUKK3T3PnavyDjZ1Q9Fnr6uL/M9p9N2NUWXrDSLdq2wgyo5k6X4B43+L5618K/K7I5rV0urcLzyy/XgDd85/R7cUjSq5D6JLOTGP2g3oWL5R12xWEGgh9w7GbxIbuGr4wHrw1FB0oBPJJdZEbk9zSf20s0bBYL+DxTJHbhUZ6PjiNDckzXI6aj3w1oAfv9qC+rlG+XqC4RFJdNNjQAbLO4FBjili72nT4K/gBbp+aWb9yijXFFDpF7AeAiO5mktNqoC735nOdQ1olAcQlkdHIwJ+B0+/0DVPzHzRD8SLnvFGt8kegDVfZz9PjUmCWylbMF+hyfN2Ovv5ZSzfG5WwO2ZjEWMm5AfM+yrFEhjn9zzFZ8MSft9AqjFpr4rMPMNbvXKZXN+1wPB2A1uLLJ1HZoXgaYflYmf91km0ytZpZJJpfzLi8XjfFsPbM0dDMbPIzLnh7/DG1rejUnrE3xDw7+0x3BnL3eYWGd6az/Udll1jleAPF/Fm8cC7DRzXYPIrotKSDn8Q/O4uhHYZTsiqmYJNJdpBDDO3G83J8GWsHXtWtkXMKV+zeInVD6zHx2dmFRbdlCfEa0rruALHHb5iy9ZuDYJfPEQbsf0nWLleslzOarKuhTiOu2Zimf//1eTSoS7rOtY7yEmMwDtRk40ihj8n4QkzHjd5kR02u2QThJXrxXSqn0K+I6/egYu42dZFmGXXonJTLrEBp0EZ7nJFDCMuuohxkRanNyEIt9RetaeQp2RWMS68OhhmAE/XlNwshwr5WdXMDb3/hBj6MO4Vo45VRGxY4/n938huEmfpdXQDSUEtiI9mGz4QKruuw4CPplMYT2dMfJaiP8Y46/tHiJ4442U140hntJKhQNIrJ2W7PuwhCEi/x8sFlyoDxKy1d2UePtQSzWrPnvcdV0rVEPHJI0/Zk/OGv0f5V3FbdKj8fFZoWxXcuNfdz89UlAPnHuBCJ5RWBCChdYklLCV7AR8mpykUcw/qYyumWN7ditoWgxufO0JZlQHn3dOEKyq+bDuz8IHrK4ohqgdud9Q9zi3yPK8HTkaCM5yJHIwYrmNC1h58Wh3e/9TFGc5TOBGSwSy3n0LEKWYMjxeub+fIuFPWwch57fEDJ3WwbeCftZ3Pwh0F5lEasItfKW/NpOdmE3Rt0QOndmnuUbpsJ1fgDBIndhzUoue28NxiM/mvAWrjaOd9/2mQMpYTf1gNsGfIt9Skj9tZ+GM1ze0OqGfIyN3+uEtgN52Fijid4a31ui1eGkZFnDUyRUlQY3Gbihy1Wyw1IwcltrzDpJiSYOcJ+If6ADoqzDPTNXYAzTaXvA5aQCxntV6q5oDWIZjSBdhpoJ+99M1AKJxm0z152gHaFmHoLiSYIFLoWMNqiT9f8D53tWNggMCMirGo7IZxXMpqPgAZCv5YIBhmQ7QgHgTZoKfADTUvgQeuFKEUyKGKnisJtB0qBtvB7KaxnkgsFlD7wqB6Xu+sRPRKFPDTA6scYR91qULxHMADPy3/0gwuwCJ9c5aRdoJhmhYzKwsfdeTLAmtzZIqN3silonvX6WdhTYMW58OiHiRjLJ2jZ3dOPWkgDHeEYkCIqJV7ZuVSPpEOcBxg2+GyvfzgwzfJBxi61dBXNBuQ7R3Tt6TU00yAt9I75NEQquuOAOsWb+aiTfO34oRy7JUv79FWUQJynGZlDPoFJczrNAiIIldfBQKUNuQfVbJfRKbuzr8srx7tHgCOG3PHBoggkue6xEhFeDnI5QwH2ANigbUJ2djJrG/mm7/EokPBnr6G41Cv4ZwzbkHEdUxDQdxDOxw/IzI+E/BZEHHpvPgrImCfdvQ4Zjin/1/RUYGMrkrW8AkkP2WH41Aec9pt8km9c3LQ4iefzKyzD5Yx9PN2SDvkjDdu4y6g1ITED9YAERC9CHTpxswvYTi7ZwMplelELVoTVoGW3h0gJ0xPJYx2+X3uf2D4oSr+dFIF7uxRgZbyKuBScWppGfQahuyDUrViUshMZO8/wNRS4z2ADCn58nIN1ocHfXvvrZjAv7wAbXtQhI5yH6D+qA0rSFB1/92B6YTiFzGVVUEqKxqgoUsGCYCoCcr8zWxONu0PchRQHX2K4+r3YjBo4DgSWlNL57t9i0OLuw+Y9Xjp6X828A+5B6miKa0C5Jy1QINWQbZqqOPsDRDHJ9wzM20GI1DPHEZICcjOQARIq0yYFAs5rDs0eIdIoctS3yHEtXG3CZEbLVga/gkAyddZuiQBcXw8PW4l+umgPuTHR5bRUPZAgKX+RpNqtuymcq8KGHVYuiOBjeMVY/8KX5ZShnIWFUlwqp8rBkw1jDrklsIfRz3MhxKctu66YfdRRvOlB4E0/Soyu19eUZFjq1i6BgTmBkYrgLvbdhEXHQ6NYkkC8oA1tMRggCoSKi6xlhoRV3k1CctFaGiJAYHJoHTfn56JqCpth2A/uCXf8B/scUgWd3W9TKDADyyJbXEQAtQ9IVtrRDPIy8tLR+Dg7K/poot2gFIoN2pUX4lI9orEBuyznukP0Q2kA7KDTICg8YIHk4uC0JuqWtoFQEAphw707w4fJ4PwRKYTDs4nC5tDyPEvn7grzZmuuYbqCezQUWJ2J32A91fJMQI41wTX9OQ3qjbwMDglf58MfOge6Zp2hvIRDkqps1VC+DRtJbEeiAjz0vCPD20A5UWND+gqKYVIQuxlV8RJWVd4oA38jGpDUffMgxXLhvAyNEGQ9IASF/ISofkETzAVV1IDOgMLcBFtBK7t11LAETsPmpcf7I0K/HZnd7+IUktioga+sj08NLfDCu/R0oo54jIf/lFG9N4rHWgM9uDP0rzcfyeXdJ9XMrZSAvHtCMbO06olOBLIfTg/xBT6/IzgTU6sgkw8dGYUtBnBHc3MHQ1HEuLc8YcCheq+L2Dcm5qDnR2pVSf5HJkK6K0+TDj5cDxnEtw84mj752B7ONHwi262/7tsRllOf0diDZ3yT/L9BsZjlrrnW1Xdajd1YvJLAr8BFRz2Dpd3Lrdwn/i+n+yzok6FxIOLzLYr/oR0kq9/o0SugvzbWEnyll5X51zE3OFx10gslRi2V2t7g9wjJWp4bdhd5xmgFWKfNUkeWCzf/DCFMZgaUYrA+nNqb4lIbOqm7j2Ymm4HwVZn8hPvlWorV7jeENMz7jph4e7xL9jHTXvoXqlemBpRisLmU79jVwBsf2SOWCX0eYVF4zmWOzIy2HFuD2f7LH4n2dprv+M+2c6qv7KiX/gLYDqDHmInBg4EFt/7VZjzrBPSr2PSiJ28UmbvweEvYTh8z1yN2JmRGrYe1RbfoFJ66OmEnQO/zIR50dHOV7a6l/KCrWGSFz7nxIb1Vr86pxMRqUJIxuLnDF4gUMFyodYujLI8Xu6npDxhKAPW6BjWohUGdSn0mLFvVMr5cb1s4TTg7h4aWIMljhLac72kLdhsWqagkihfLYJv0X4q/2KI5bxcN1k4g1B/wE1qw6lNHHlrtq3MT5EDpWsPAfhK8A9C/TP7eaM+wcIkfFdjkoPFZ6q92mlW5ixGuufWRabNTeOlTNfTTaeYi3SlJgkSEj3xJ28kSy2HUhfPuWfzHUgVhMSethEwVkubq6hydJw5965fr1B+4CvSzHiuFOHtctUjZ8IrvthDGUGSyztqXJHfHTauiqPI4mP2d+T7ieQsZASNiUaPcJ3cWE7QGRfuCo3KOuDfqE9asal2ZykktcSTWpyn4d8T7x9E2bYlGr2Nyp30qrfZKQqPjMD0dgdl9XUpQip2xdZZVqmM89INTUwqORUpE8Cht7qkMbODFZBkeck7pT5Kd0sqL/PryZxnsMvOKZ8xKl1vc+NW+zWbCbUjSoIqL524n/zcPz3JuyZuJ82rIDGuOCM/u12avl285zy7t7ALEXPvUl83f8sTxBGdgvBaFLfz+Xy7hlmwt0uofwiv1dk9ll7jeEe33UKgi9X/AQ9b2z/69j9aAAAAAElFTkSuQmCC;" vertex="1" parent="1">
          <mxGeometry x="700" y="1070" width="261.26" height="97" as="geometry" />
        </mxCell>
        <mxCell id="FMOi6vV2VER36_XZcloE-215" value="" style="endArrow=classic;html=1;rounded=0;entryX=-0.011;entryY=0.214;entryDx=0;entryDy=0;entryPerimeter=0;exitX=0.997;exitY=0.218;exitDx=0;exitDy=0;exitPerimeter=0;" edge="1" parent="1" source="FMOi6vV2VER36_XZcloE-209" target="FMOi6vV2VER36_XZcloE-214">
          <mxGeometry width="50" height="50" relative="1" as="geometry">
            <mxPoint x="560" y="1344" as="sourcePoint" />
            <mxPoint x="576" y="1138" as="targetPoint" />
          </mxGeometry>
        </mxCell>
        <mxCell id="FMOi6vV2VER36_XZcloE-216" value="3. Request Any Actions with JWT" style="edgeLabel;html=1;align=center;verticalAlign=middle;resizable=0;points=[];" vertex="1" connectable="0" parent="FMOi6vV2VER36_XZcloE-215">
          <mxGeometry x="-0.3732" y="-2" relative="1" as="geometry">
            <mxPoint x="49" y="-5" as="offset" />
          </mxGeometry>
        </mxCell>
        <mxCell id="FMOi6vV2VER36_XZcloE-217" value="" style="endArrow=classic;html=1;rounded=0;entryX=0.794;entryY=0.978;entryDx=0;entryDy=0;entryPerimeter=0;exitX=0.175;exitY=-0.008;exitDx=0;exitDy=0;exitPerimeter=0;" edge="1" parent="1" source="FMOi6vV2VER36_XZcloE-214" target="FMOi6vV2VER36_XZcloE-167">
          <mxGeometry width="50" height="50" relative="1" as="geometry">
            <mxPoint x="421" y="1104" as="sourcePoint" />
            <mxPoint x="707" y="1101" as="targetPoint" />
          </mxGeometry>
        </mxCell>
        <mxCell id="FMOi6vV2VER36_XZcloE-218" value="4. Verify JWT" style="edgeLabel;html=1;align=center;verticalAlign=middle;resizable=0;points=[];" vertex="1" connectable="0" parent="FMOi6vV2VER36_XZcloE-217">
          <mxGeometry x="-0.3732" y="-2" relative="1" as="geometry">
            <mxPoint x="-12" y="-23" as="offset" />
          </mxGeometry>
        </mxCell>
        <mxCell id="FMOi6vV2VER36_XZcloE-219" value="" style="endArrow=classic;html=1;rounded=0;exitX=0.918;exitY=1.013;exitDx=0;exitDy=0;exitPerimeter=0;entryX=0.576;entryY=0.008;entryDx=0;entryDy=0;entryPerimeter=0;" edge="1" parent="1" source="FMOi6vV2VER36_XZcloE-167" target="FMOi6vV2VER36_XZcloE-214">
          <mxGeometry width="50" height="50" relative="1" as="geometry">
            <mxPoint x="756" y="1079" as="sourcePoint" />
            <mxPoint x="850" y="1060" as="targetPoint" />
          </mxGeometry>
        </mxCell>
        <mxCell id="FMOi6vV2VER36_XZcloE-220" value="5.Validate JWT" style="edgeLabel;html=1;align=center;verticalAlign=middle;resizable=0;points=[];" vertex="1" connectable="0" parent="FMOi6vV2VER36_XZcloE-219">
          <mxGeometry x="-0.3732" y="-2" relative="1" as="geometry">
            <mxPoint x="28" y="45" as="offset" />
          </mxGeometry>
        </mxCell>
        <mxCell id="FMOi6vV2VER36_XZcloE-221" value="" style="endArrow=classic;html=1;rounded=0;entryX=0.995;entryY=0.713;entryDx=0;entryDy=0;entryPerimeter=0;exitX=-0.005;exitY=0.833;exitDx=0;exitDy=0;exitPerimeter=0;" edge="1" parent="1" source="FMOi6vV2VER36_XZcloE-214" target="FMOi6vV2VER36_XZcloE-209">
          <mxGeometry width="50" height="50" relative="1" as="geometry">
            <mxPoint x="690" y="1150" as="sourcePoint" />
            <mxPoint x="707" y="1101" as="targetPoint" />
          </mxGeometry>
        </mxCell>
        <mxCell id="FMOi6vV2VER36_XZcloE-222" value="6. Response And Active API" style="edgeLabel;html=1;align=center;verticalAlign=middle;resizable=0;points=[];" vertex="1" connectable="0" parent="FMOi6vV2VER36_XZcloE-221">
          <mxGeometry x="-0.3732" y="-2" relative="1" as="geometry">
            <mxPoint x="-58" y="2" as="offset" />
          </mxGeometry>
        </mxCell>
      </root>
    </mxGraphModel>
  </diagram>
</mxfile>
